# xmcd
#
# Track frame offsets:
#	150
#	14067
#	28805
#	45905
#	58540
#	73542
#	89365
#	103880
#	116905
#	129272
#
# Disc length: 1951 seconds
#
# Revision: 0
# Processed by: cddbd v1.4PL0 Copyright (c) Steve Scherf et al.
# Submitted via: dBpowerAMP V4.0
#
DISCID=87079d0a
DTITLE=Various Artist - Hot Country Hits Of The 90's  - Volume 1
DYEAR=1998
DGENRE=Country
TTITLE0=Mark Chestnutt - Brother Jukebox
TTITLE1=Aaron Tippin - That's As Close As I'll Get To Lovin' You
TTITLE2=K.T. Oslin - Come Next Monday
TTITLE3=Shenandoah - If Bubba Can Dance
TTITLE4=Alabama - Down Home
TTITLE5=Paul Overstreet- Daddy's Come Around
TTITLE6=Sawyer Brown - Some Girls Do
TTITLE7=John Anderson - Straight Tequila Night
TTITLE8=Lorrie Morgan - What Part Of No
TTITLE9=Doug Supernaw - I Don't Call Him Daddy
EXTD=
EXTT0=
EXTT1=
EXTT2=
EXTT3=
EXTT4=
EXTT5=
EXTT6=
EXTT7=
EXTT8=
EXTT9=
PLAYORDER=
